# xmcd
#
# Track frame offsets:
#	150
#	14767
#	29593
#	49539
#	61391
#	78631
#	91848
#	110460
#	121229
#	138402
#
# Disc length: 2083 seconds
#
# Revision: 1
# Processed by: cddbd v1.4PL0 Copyright (c) Steve Scherf et al.
# Submitted via: audiograbber 1.82.01
#
DISCID=8308210a
DTITLE=Lina Primard - Seule a Pleurer
DYEAR=2002
DGENRE=Country
TTITLE0=J'Parle en Cajun
TTITLE1=Le Gout de tes Levres
TTITLE2=Quand je Partirai
TTITLE3=Il est un peu trop tard
TTITLE4=Seule a pleurer
TTITLE5=Un seul Probleme
TTITLE6=L'hotel
TTITLE7=Mais moi je t'aime
TTITLE8=Laisse-moi faire comme je veux
TTITLE9=Juliana
EXTD=
EXTT0=
EXTT1=
EXTT2=
EXTT3=
EXTT4=
EXTT5=
EXTT6=
EXTT7=
EXTT8=
EXTT9=
PLAYORDER=
